<svg width="90" height="78" viewBox="0 0 90 78" fill="none" xmlns="http://www.w3.org/2000/svg">
<rect width="90" height="78" rx="12" fill="#042659"/>
<path d="M34.0977 42.2031L35.5039 39.5469V54H34.0977V42.2031ZM36.9102 36.8125L38.3164 34.1562V54H36.9102V36.8125ZM39.7227 31.5L41.1289 28.8242V54H39.7227V31.5ZM30.2891 41.5391L29.4883 40.0742L39.1758 21.6562H40.7578L30.2891 41.5391ZM28.668 38.4727L27.8477 36.9883L35.9727 21.6562H37.5742L28.668 38.4727ZM19.2539 39.7031L20.6602 42.3594V54H19.2539V39.7031ZM16.4414 34.3516L17.8477 37.0078V54H16.4414V34.3516ZM13.6289 29L15.0352 31.6758V54H13.6289V29ZM24.9961 45.5625H23.4141L12.2227 24.332V54H10.8164V21.6562H12.3984L24.9961 45.5625ZM28.1797 45.5625H26.5781L14 21.6562H15.6016L28.1797 45.5625ZM42.5352 24.332L31.3438 45.5625H29.7422L17.1836 21.6562H18.7656L30.5625 44.0781L42.3398 21.6562H43.9414V54H42.5352V24.332ZM69.1367 42.7305C69.1367 42.2227 68.9805 41.8841 68.668 41.7148C68.3685 41.5456 67.9258 41.4609 67.3398 41.4609H58.2773V40.0547H67.3398C69.4753 40.0547 70.543 40.9466 70.543 42.7305C70.543 43.7331 70.25 44.4557 69.6641 44.8984C69.0781 45.3411 68.3034 45.5625 67.3398 45.5625H58.2773V44.1562H67.3398C68.5378 44.1562 69.1367 43.681 69.1367 42.7305ZM57.4961 54H56.0898V30.0938H67.3398C68.2253 30.0938 68.9805 30.3672 69.6055 30.9141C70.2305 31.4479 70.543 32.1185 70.543 32.9258C70.543 33.9935 70.25 34.7682 69.6641 35.25C69.0781 35.7188 68.3034 35.9531 67.3398 35.9531H58.2773V34.5469H67.3398C68.5378 34.5469 69.1367 34.0065 69.1367 32.9258C69.1367 32.4831 68.9674 32.138 68.6289 31.8906C68.2904 31.6302 67.8607 31.5 67.3398 31.5H57.4961V54ZM58.2773 37.3594H67.3398C68.6289 37.3594 69.7161 36.9753 70.6016 36.207C71.5 35.4258 71.9492 34.332 71.9492 32.9258C71.9492 31.793 71.4805 30.8034 70.543 29.957C69.6185 29.1107 68.5508 28.6875 67.3398 28.6875H54.6836V54H53.2773V27.2812H67.3398C68.9414 27.2812 70.3411 27.8477 71.5391 28.9805C72.75 30.1003 73.3555 31.4154 73.3555 32.9258C73.3555 34.1107 73.0755 35.1458 72.5156 36.0312C71.9688 36.9167 71.2266 37.6003 70.2891 38.082C72.3333 38.8112 73.3555 40.2956 73.3555 42.5352C73.3555 44.306 72.7695 45.7253 71.5977 46.793C70.4258 47.8477 69.0065 48.375 67.3398 48.375H58.2773V46.9688H67.3398C68.6289 46.9688 69.7161 46.5846 70.6016 45.8164C71.5 45.0352 71.9492 43.9414 71.9492 42.5352C71.9492 41.5846 71.6107 40.7448 70.9336 40.0156C70.2565 39.2865 69.2604 38.8633 67.9453 38.7461C67.8151 38.7591 67.6133 38.7656 67.3398 38.7656H58.2773V37.3594ZM76.168 32.9258C76.168 34.7487 75.5234 36.3958 74.2344 37.8672C75.5234 39.2995 76.168 40.8555 76.168 42.5352C76.168 44.1628 75.7578 45.6471 74.9375 46.9883C74.1302 48.3164 73.0495 49.3516 71.6953 50.0938C70.3542 50.8229 68.9023 51.1875 67.3398 51.1875H58.2773V49.7812H67.3398C69.3711 49.7812 71.1159 49.1042 72.5742 47.75C74.0326 46.3828 74.7617 44.6445 74.7617 42.5352C74.7617 41.7799 74.5664 40.9466 74.1758 40.0352C73.7982 39.1107 73.2708 38.4076 72.5938 37.9258C74.0391 36.5716 74.7617 34.9049 74.7617 32.9258C74.7617 31.0247 74.0195 29.3776 72.5352 27.9844C71.0508 26.5781 69.319 25.875 67.3398 25.875H51.8711V54H50.4648V24.4688H67.3398C68.8893 24.4688 70.3411 24.8529 71.6953 25.6211C73.0625 26.3763 74.1497 27.4115 74.957 28.7266C75.7643 30.0286 76.168 31.4284 76.168 32.9258ZM75.8359 37.9453C76.9948 36.3958 77.5742 34.7227 77.5742 32.9258C77.5742 31.168 77.1055 29.5339 76.168 28.0234C75.2435 26.5 73.9935 25.2956 72.418 24.4102C70.8424 23.5117 69.1497 23.0625 67.3398 23.0625H49.0586V54H47.6523V21.6562H67.3398C69.3971 21.6562 71.3177 22.1641 73.1016 23.1797C74.8984 24.1953 76.3242 25.5755 77.3789 27.3203C78.4466 29.0521 78.9805 30.9206 78.9805 32.9258C78.9805 34.8398 78.4401 36.5195 77.3594 37.9648C78.4401 39.4622 78.9805 40.9857 78.9805 42.5352C78.9805 44.2799 78.668 45.8815 78.043 47.3398C77.418 48.7852 76.5716 49.9896 75.5039 50.9531C74.4492 51.9167 73.2188 52.6654 71.8125 53.1992C70.4062 53.7331 68.9154 54 67.3398 54H58.2773V52.5938H67.3398C68.707 52.5938 70.0156 52.3398 71.2656 51.832C72.5156 51.3112 73.6029 50.6081 74.5273 49.7227C75.4518 48.8372 76.1875 47.7695 76.7344 46.5195C77.2943 45.2695 77.5742 43.9414 77.5742 42.5352C77.5742 41.9102 77.4245 41.1615 77.125 40.2891C76.8385 39.4036 76.4089 38.6224 75.8359 37.9453Z" fill="#fff"/>
</svg>
